<?xml version="1.0" standalone="no"?>
<!DOCTYPE svg PUBLIC "-//W3C//DTD SVG 20010904//EN"
 "http://www.w3.org/TR/2001/REC-SVG-20010904/DTD/svg10.dtd">
<svg version="1.0" xmlns="http://www.w3.org/2000/svg"
 width="100.000000pt" height="100.000000pt" viewBox="0 0 100.000000 100.000000"
 preserveAspectRatio="xMidYMid meet">
<metadata>
Created by potrace 1.14, written by Peter Selinger 2001-2017
</metadata>
<g transform="translate(0.000000,100.000000) scale(0.100000,-0.100000)"
fill="#000000" stroke="none">
<path d="M477 943 c-4 -3 -7 -91 -7 -195 0 -166 -2 -195 -21 -246 -11 -31 -25
-72 -30 -90 -6 -18 -17 -36 -25 -39 -25 -9 -60 6 -74 31 -12 23 -10 29 15 62
l28 36 -10 104 c-8 83 -16 115 -42 168 -29 59 -79 116 -102 116 -5 0 -9 -137
-9 -335 l0 -335 78 0 c42 0 82 -4 89 -8 6 -4 18 -26 26 -49 15 -44 50 -93 81
-113 14 -9 24 -9 40 0 24 13 76 84 76 104 0 7 9 25 21 40 19 24 26 26 95 26
l74 0 0 329 c0 182 -4 332 -8 335 -12 7 -56 -34 -84 -79 -41 -68 -57 -125 -59
-221 -3 -81 0 -94 19 -119 12 -15 22 -35 22 -45 0 -46 -91 -69 -98 -25 -4 19
-14 46 -43 110 -9 21 -14 94 -17 238 -3 155 -7 207 -16 207 -7 0 -16 -3 -19
-7z m-187 -183 c7 -14 21 -74 31 -134 l18 -110 -27 -32 c-15 -18 -37 -33 -49
-33 -23 -1 -23 0 -23 152 0 83 -3 170 -7 192 l-6 40 25 -25 c14 -14 31 -36 38
-50z m456 -297 c-15 -39 -96 25 -96 76 0 38 27 181 40 216 6 16 21 38 33 49
l22 21 3 -175 c1 -96 0 -180 -2 -187z m-216 -39 c26 -59 25 -68 -5 -88 -31
-20 -44 -20 -74 3 l-24 18 23 57 c30 71 51 74 80 10z m-230 -45 c6 -10 22 -24
37 -31 30 -14 38 -36 29 -74 -6 -22 -11 -24 -69 -24 l-63 0 4 73 c3 39 9 75
15 79 14 9 36 -1 47 -23z m448 -56 l3 -73 -60 0 c-49 0 -62 4 -71 19 -18 34
-12 60 18 75 15 8 36 24 46 35 11 12 29 21 40 19 19 -3 21 -11 24 -75z m-303
-19 c14 -9 25 -25 25 -35 0 -15 -7 -19 -39 -19 l-40 0 10 32 c5 18 9 34 9 35
0 7 12 2 35 -13z m128 9 c2 -5 7 -20 11 -35 6 -26 4 -28 -28 -28 -45 0 -54 16
-25 46 23 25 35 29 42 17z m-108 -147 c0 -62 -16 -69 -40 -17 -21 47 -14 74
17 69 20 -3 23 -9 23 -52z m111 40 c6 -16 -32 -96 -45 -96 -11 0 -21 25 -21
55 0 13 3 30 6 39 8 20 53 21 60 2z"/>
</g>
</svg>
